<svg xmlns="http://www.w3.org/2000/svg" viewBox="0 0 539.89 215.67"><defs><style>.cls-1{fill:#1fb36e;}.cls-2{fill:#fdbf3a;}.cls-3{fill:#eca5a5;}.cls-4{fill:#93bee6;}.cls-5{fill:#f26f35;}</style></defs><g id="Calque_2" data-name="Calque 2"><g id="Calque_1-2" data-name="Calque 1"><path class="cls-1" d="M90.31,176.23h0c-4.73,0-9.16-2.88-11.88-7.71L42.71,105.19a2,2,0,0,0-3.43-.34L28.35,118.93a3.17,3.17,0,0,0-.64,1.95v37.81c0,9.69-6.26,17.54-14,17.54h0C6.14,176.23,0,168.54,0,159.05V24.7C0,15.11,6.2,7.34,13.86,7.34h0c7.65,0,13.85,7.77,13.85,17.36V69.81c0,2.54,2.48,3.77,3.87,1.92L76,12.42a11.78,11.78,0,0,1,9.35-5.08h0c11.41,0,17.14,17.26,9.09,27.39L62.26,75.19A3.36,3.36,0,0,0,62,78.82l40,68.42C109.08,159.28,102.22,176.23,90.31,176.23Z" transform="translate(0 5)"/><path class="cls-2" d="M272.8,13.92a11.53,11.53,0,0,0-23.05-.78h0l-2.15,63.8a2.1,2.1,0,0,1-3.15,1.73,48.25,48.25,0,0,0-22.7-6.3A49.34,49.34,0,0,0,171,119.82a46.9,46.9,0,0,0,10,31.32,50.31,50.31,0,0,0,42.28,19.32,46.62,46.62,0,0,0,30.21-13.18,47,47,0,0,0,15.67-34.13l3.69-109.23ZM238.61,141.33a27.23,27.23,0,0,1-37.17-39.79,27.23,27.23,0,0,1,37.17,39.79Z" transform="translate(0 5)"/><path class="cls-2" d="M220.48,172.53a52.13,52.13,0,0,1-41.13-20.16A49.1,49.1,0,0,1,169,119.75a51.35,51.35,0,0,1,52.86-49.38,50.5,50.5,0,0,1,23.62,6.56.12.12,0,0,0,.12,0l2.19-63.87a2.45,2.45,0,0,1,0-.27,13.53,13.53,0,0,1,27,1.19,1.15,1.15,0,0,1,0,.26l-3.68,109a49.21,49.21,0,0,1-16.31,35.53,48.75,48.75,0,0,1-31.46,13.7C222.37,172.51,221.42,172.53,220.48,172.53Zm-.6-98.2A47.37,47.37,0,0,0,173,119.89a45.22,45.22,0,0,0,9.56,30,48.13,48.13,0,0,0,40.59,18.54,44.91,44.91,0,0,0,29-12.63,45.35,45.35,0,0,0,15-32.75l3.69-109.23a1.81,1.81,0,0,1,0-.23A9.52,9.52,0,0,0,261.6,4a9.53,9.53,0,0,0-9.85,9.2,2.11,2.11,0,0,1,0,.25L249.58,77a4,4,0,0,1-2.08,3.42,4.09,4.09,0,0,1-4.06,0,46.48,46.48,0,0,0-21.77-6C221.07,74.34,220.48,74.33,219.88,74.33Zm.31,76.3-1.1,0a29.22,29.22,0,0,1-19-50.52,29.3,29.3,0,0,1,41.3,1.38,29.58,29.58,0,0,1-1.37,41.3l0,0A28.42,28.42,0,0,1,220.19,150.63Zm-.27-54.39a25.11,25.11,0,0,0-25.07,24.39,25.13,25.13,0,1,0,50.24,1.71,24.59,24.59,0,0,0-6.65-18.15,24.22,24.22,0,0,0-17.5-7.93Zm18.69,45.08h0Z" transform="translate(0 5)"/><path class="cls-3" d="M294.41,188.65a52.66,52.66,0,0,1,0-75.14,52.66,52.66,0,0,1,75.14,0A50.91,50.91,0,0,1,385.2,151a53.43,53.43,0,0,1-53.28,53.28A50.91,50.91,0,0,1,294.41,188.65Zm19.69-55.46a25.25,25.25,0,1,0,17.83-7.37A24.69,24.69,0,0,0,314.1,133.19Z" transform="translate(0 5)"/><path class="cls-4" d="M142,88.64a12.88,12.88,0,0,1-9,5.19A13.34,13.34,0,0,1,122.72,91a13.57,13.57,0,0,1-5.21-9.24,13.85,13.85,0,0,1,12.08-15.44,12.9,12.9,0,0,1,10,2.87,13.41,13.41,0,0,1,5.22,9.24A13.6,13.6,0,0,1,142,88.64Zm5.15,121.93h0a13.7,13.7,0,0,1-15.26-11.95l-9.25-75.87a13.71,13.71,0,0,1,11.94-15.27h0a13.71,13.71,0,0,1,15.26,12l9.25,75.88A13.7,13.7,0,0,1,147.14,210.57Z" transform="translate(0 5)"/><path class="cls-5" d="M424.79,144.34,485.15,85c4.93-5,3.27-9.49-3.68-10.1l-45-4.3q-6.45-.57-9.49-3.7c-2-2.1-2.76-6.08-2.49-9.19a10.14,10.14,0,0,1,4-7.55q3.54-2.7,10-2.14C460.81,50,479.3,52,501.64,54c6.67.58,15.18-.4,20.94,3.6,3.82,2.64,5.77,7.47,5.64,12.12a23.61,23.61,0,0,1-4.79,12.86c-5.21,7.29-12.88,13.58-19.28,20l-26.71,26.65L457.7,148.85c-4.95,4.94-3.18,8.1,3.8,8.72l57.2,5.36q6.56.58,9.54,3.57c2,2,2.73,6,2.45,9.23a10.35,10.35,0,0,1-3.93,7.7q-3.5,2.65-10,2.08c-25.67-2.25-47.48-4.51-73.14-6.77-6.4-.56-13.29-.25-19.44-2.22-4.6-1.47-8.92-4.62-10.59-9.15a14.81,14.81,0,0,1,1-11.59C416.9,151.09,421.19,148,424.79,144.34Z" transform="translate(0 5)"/><path class="cls-5" d="M518.92,187.11c-.75,0-1.53,0-2.34-.1-12.8-1.13-24.84-2.27-36.48-3.38s-23.8-2.26-36.67-3.39c-1.75-.16-3.6-.25-5.38-.33-4.8-.24-9.76-.48-14.38-2-5.56-1.78-9.87-5.54-11.53-10.06a16.21,16.21,0,0,1,1.07-12.78c1.86-3.71,4.8-6.44,7.64-9.08,1-.89,2-1.81,2.87-2.74l0,0L484.1,84c1.91-1.92,2.73-3.78,2.25-5.09s-2.31-2.21-5-2.45l-45-4.29c-4.65-.41-8.16-1.81-10.43-4.16-2.41-2.51-3.2-7-2.91-10.36A11.67,11.67,0,0,1,427.56,49c2.65-2,6.37-2.85,11-2.44,11.17,1,21.55,2,31.58,2.94s20.42,2,31.59,3c1.58.14,3.25.19,5,.24,5.58.16,11.9.35,16.63,3.62,4,2.79,6.44,7.92,6.29,13.4a25,25,0,0,1-5.07,13.7c-3.84,5.36-8.94,10.17-13.88,14.82-1.86,1.75-3.79,3.56-5.56,5.34L478.5,130.23l-9.87,9.84-9.87,9.84c-1.76,1.76-2.63,3.33-2.31,4.2.13.36.9,1.59,5.18,2l57.21,5.37c4.7.41,8.22,1.76,10.47,4,2.4,2.41,3.18,7,2.87,10.42a11.79,11.79,0,0,1-4.51,8.76A14.11,14.11,0,0,1,518.92,187.11Zm-93.07-41.7c-1,1-2,1.91-3,2.82-2.78,2.57-5.39,5-7,8.23a13.22,13.22,0,0,0-.94,10.39c1.35,3.66,4.95,6.74,9.64,8.24,4.24,1.36,9,1.6,13.61,1.82,1.81.09,3.68.18,5.5.34,12.87,1.13,25,2.28,36.68,3.39s23.67,2.25,36.46,3.38c4,.35,7-.25,9-1.79a8.77,8.77,0,0,0,3.34-6.63c.29-3.21-.56-6.59-2-8-1.73-1.73-4.63-2.78-8.62-3.13l-57.2-5.37c-4.32-.38-6.92-1.7-7.73-3.93s.25-4.58,3-7.35l9.88-9.84,9.86-9.84,26.71-26.65c1.8-1.8,3.75-3.63,5.62-5.4,4.84-4.55,9.83-9.25,13.5-14.38a22.18,22.18,0,0,0,4.52-12,12.74,12.74,0,0,0-5-10.85c-4-2.77-9.59-2.93-15-3.09-1.82-.05-3.54-.1-5.2-.25-11.18-1-21.57-2-31.62-3s-20.39-2-31.55-2.94c-3.9-.34-6.92.27-9,1.83A8.67,8.67,0,0,0,426,57.88c-.23,2.67.41,6.28,2.08,8s4.63,2.9,8.55,3.25l45,4.29c4,.35,6.65,1.92,7.56,4.41s-.14,5.42-3,8.24Z" transform="translate(0 5)"/><rect class="cls-4" x="386.83" y="15.29" width="18.36" height="45.76" rx="9.18" transform="translate(14.75 -70.5) rotate(11.1)"/><text y="5"/><text y="5"/></g></g></svg>